<svg xmlns="http://www.w3.org/2000/svg" xmlns:xlink="http://www.w3.org/1999/xlink" width="256" zoomAndPan="magnify" viewBox="0 0 192 63.749997" height="85" preserveAspectRatio="xMidYMid meet" version="1.0"><defs><g/><clipPath id="ba2681adc5"><path d="M 0.375 0 L 191.625 0 L 191.625 63.5 L 0.375 63.5 Z M 0.375 0 " clip-rule="nonzero"/></clipPath></defs><g fill="#FFFFFF" fill-opacity="1"><g transform="translate(2.367044, 50.22028)"><g><path d="M 18.429688 -25.652344 C 15.898438 -25.652344 13.410156 -25.089844 12.003906 -24.007812 L 10.128906 -21.242188 L 10.128906 -34.46875 L 2.765625 -34.46875 L 2.765625 0 L 10.128906 0 L 10.128906 -3.28125 L 11.769531 -0.65625 C 13.035156 0.140625 15.523438 0.65625 17.585938 0.65625 C 24.007812 0.65625 29.496094 -4.03125 29.496094 -13.035156 C 29.496094 -20.398438 25.324219 -25.652344 18.429688 -25.652344 Z M 15.851562 -4.40625 C 13.035156 -4.40625 10.128906 -6.285156 10.128906 -11.675781 L 10.128906 -12.800781 C 10.128906 -18.523438 12.707031 -20.585938 16.085938 -20.585938 C 19.554688 -20.585938 21.945312 -17.492188 21.945312 -12.566406 C 21.945312 -7.128906 19.414062 -4.40625 15.851562 -4.40625 Z M 15.851562 -4.40625 "/></g></g></g><g fill="#FFFFFF" fill-opacity="1"><g transform="translate(31.199286, 50.22028)"><g><path d="M 9.941406 -34.46875 L 2.578125 -34.46875 L 2.578125 -8.394531 C 2.578125 -6.660156 2.578125 -5.441406 2.671875 -4.21875 C 2.859375 -0.9375 4.925781 0.421875 8.441406 0.421875 C 10.082031 0.421875 11.441406 0.328125 12.847656 0.1875 L 12.847656 -4.828125 C 10.644531 -4.734375 10.128906 -5.113281 9.988281 -6.238281 C 9.941406 -6.894531 9.941406 -7.457031 9.941406 -8.535156 Z M 9.941406 -34.46875 "/></g></g></g><g fill="#FFFFFF" fill-opacity="1"><g transform="translate(42.968612, 50.22028)"><g><path d="M 26.261719 -12.941406 C 26.261719 -19.601562 22.132812 -25.652344 14.160156 -25.652344 C 6.238281 -25.652344 1.21875 -19.929688 1.21875 -12.425781 C 1.21875 -3.609375 6.707031 0.65625 13.691406 0.65625 C 19.789062 0.65625 24.476562 -2.390625 25.839844 -8.160156 L 18.570312 -8.160156 C 18.148438 -5.816406 16.414062 -4.40625 13.832031 -4.40625 C 11.066406 -4.40625 9.003906 -5.816406 8.582031 -10.597656 L 26.121094 -10.597656 C 26.214844 -11.488281 26.261719 -12.285156 26.261719 -12.941406 Z M 13.832031 -20.585938 C 16.554688 -20.585938 18.195312 -18.757812 18.617188 -15.242188 L 8.769531 -15.242188 C 9.378906 -18.945312 11.207031 -20.585938 13.832031 -20.585938 Z M 13.832031 -20.585938 "/></g></g></g><g fill="#FFFFFF" fill-opacity="1"><g transform="translate(68.664364, 50.22028)"><g><path d="M 26.871094 -18.757812 C 26.308594 -23.117188 23.257812 -25.652344 18.007812 -25.652344 C 15.664062 -25.652344 13.878906 -25.183594 12.191406 -24.054688 L 10.128906 -21.054688 L 10.128906 -24.996094 L 2.765625 -24.996094 L 2.765625 0 L 10.128906 0 L 10.128906 -11.582031 C 10.128906 -17.960938 12.285156 -20.585938 15.195312 -20.585938 C 18.054688 -20.585938 19.460938 -18.992188 19.648438 -16.460938 C 19.742188 -15.195312 19.742188 -13.925781 19.742188 -12.988281 L 19.742188 0 L 27.105469 0 L 27.105469 -14.113281 C 27.105469 -16.132812 27.058594 -17.492188 26.871094 -18.757812 Z M 26.871094 -18.757812 "/></g></g></g><g fill="#FFFFFF" fill-opacity="1"><g transform="translate(96.376394, 50.22028)"><g><path d="M 27.949219 -34.46875 L 20.585938 -34.46875 L 20.585938 -21.710938 L 18.945312 -24.335938 C 17.679688 -25.136719 15.195312 -25.652344 13.128906 -25.652344 C 6.707031 -25.652344 1.21875 -20.960938 1.21875 -12.003906 C 1.21875 -4.59375 5.394531 0.65625 12.285156 0.65625 C 14.820312 0.65625 17.304688 0.09375 18.710938 -0.984375 L 20.585938 -3.75 L 20.585938 0 L 27.949219 0 Z M 14.628906 -4.40625 C 11.160156 -4.40625 8.769531 -7.503906 8.769531 -12.425781 C 8.769531 -17.867188 11.300781 -20.585938 14.867188 -20.585938 C 17.632812 -20.585938 20.585938 -18.710938 20.585938 -13.363281 L 20.585938 -12.191406 C 20.585938 -6.472656 17.960938 -4.40625 14.628906 -4.40625 Z M 14.628906 -4.40625 "/></g></g></g><g fill="#FFFFFF" fill-opacity="1"><g transform="translate(125.260691, 50.22028)"><g><path d="M 18.710938 -33.011719 C 8.675781 -33.011719 2.4375 -26.449219 2.4375 -16.179688 C 2.4375 -5.957031 8.675781 0.65625 18.710938 0.65625 C 28.699219 0.65625 34.9375 -5.957031 34.9375 -16.179688 C 34.9375 -26.449219 28.699219 -33.011719 18.710938 -33.011719 Z M 18.710938 -4.78125 C 13.316406 -4.78125 10.035156 -8.957031 10.035156 -16.179688 C 10.035156 -23.445312 13.316406 -27.574219 18.710938 -27.574219 C 24.054688 -27.574219 27.339844 -23.445312 27.339844 -16.179688 C 27.339844 -8.957031 24.054688 -4.78125 18.710938 -4.78125 Z M 18.710938 -4.78125 "/></g></g></g><g fill="#FFFFFF" fill-opacity="1"><g transform="translate(159.724938, 50.22028)"><g><path d="M 15.007812 -33.011719 C 8.722656 -33.011719 3.140625 -29.496094 3.140625 -23.445312 C 3.140625 -17.257812 7.363281 -14.960938 14.300781 -13.222656 C 18.710938 -12.191406 20.210938 -10.644531 20.210938 -8.394531 C 20.210938 -6.191406 18.101562 -4.78125 15.429688 -4.78125 C 12.472656 -4.78125 9.894531 -6.378906 9.238281 -9.707031 L 1.828125 -9.707031 C 2.390625 -2.71875 7.644531 0.65625 15.570312 0.65625 C 22.039062 0.65625 27.902344 -2.71875 27.902344 -9.003906 C 27.902344 -14.113281 24.808594 -17.492188 17.679688 -19.179688 C 12.472656 -20.398438 10.832031 -21.710938 10.832031 -24.148438 C 10.832031 -26.496094 12.472656 -27.574219 14.773438 -27.574219 C 17.867188 -27.574219 19.554688 -25.652344 19.929688 -22.648438 L 27.339844 -22.648438 C 26.636719 -28.511719 23.070312 -33.011719 15.007812 -33.011719 Z M 15.007812 -33.011719 "/></g></g></g></svg>
