<svg xmlns="http://www.w3.org/2000/svg" xmlns:xlink="http://www.w3.org/1999/xlink" width="256" zoomAndPan="magnify" viewBox="0 0 192 191.999996" height="256" preserveAspectRatio="xMidYMid meet" version="1.0"><defs><g/></defs><rect x="-19.2" width="230.4" fill="#ffffff" y="-19.2" height="230.399995" fill-opacity="1"/><rect x="-19.2" width="230.4" fill="#ff5757" y="-19.2" height="230.399995" fill-opacity="1"/><g fill="#d9d9d9" fill-opacity="1"><g transform="translate(58.684122, 150.757994)"><g><path d="M 52.722656 2.25 C 79.40625 2.25 95.804688 -10.449219 95.804688 -31.667969 C 95.804688 -49.507812 84.070312 -60.117188 56.097656 -66.707031 C 38.898438 -70.726562 32.953125 -75.066406 32.953125 -81.980469 C 32.953125 -89.375 39.542969 -93.875 50.3125 -93.875 C 62.046875 -93.875 69.121094 -87.765625 69.121094 -77.640625 L 93.714844 -77.640625 C 93.714844 -100.304688 76.675781 -114.769531 49.992188 -114.769531 C 24.113281 -114.769531 8.039062 -102.070312 8.039062 -81.496094 C 8.039062 -63.171875 20.414062 -52.242188 46.777344 -46.617188 C 62.691406 -43.238281 69.921875 -38.578125 69.921875 -30.703125 C 69.921875 -23.148438 63.171875 -18.808594 52.5625 -18.808594 C 40.1875 -18.808594 32.148438 -25.074219 32.148438 -35.84375 L 7.074219 -35.84375 C 7.074219 -12.539062 24.433594 2.25 52.722656 2.25 Z M 52.722656 2.25 "/></g></g></g><g fill="#ffffff" fill-opacity="1"><g transform="translate(48.487345, 156.120167)"><g><path d="M 0 -5.132812 L 0 -8.371094 L -11.222656 -8.371094 L -11.222656 -12.894531 L -14.257812 -12.894531 L -14.257812 -0.609375 L -11.222656 -0.609375 L -11.222656 -5.132812 Z M 0 -5.132812 "/></g></g></g><g fill="#ffffff" fill-opacity="1"><g transform="translate(48.487345, 142.616666)"><g><path d="M 0 -1.546875 L 0 -4.644531 L -5.621094 -4.644531 C -7.3125 -4.644531 -8.332031 -5.582031 -8.332031 -7.007812 C -8.332031 -8.332031 -7.433594 -9.125 -5.867188 -9.125 L 0 -9.125 L 0 -12.222656 L -6.171875 -12.222656 C -9.144531 -12.222656 -10.980469 -10.550781 -10.980469 -7.78125 C -10.980469 -6.578125 -10.613281 -5.460938 -9.878906 -4.644531 L -15.074219 -4.644531 L -15.074219 -1.546875 Z M 0 -1.546875 "/></g></g></g><g fill="#ffffff" fill-opacity="1"><g transform="translate(48.487345, 129.052065)"><g><path d="M 0.285156 -6.601562 C 0.285156 -9.226562 -1.058594 -11.304688 -3.320312 -12.242188 L -3.320312 -9.105469 C -2.605469 -8.597656 -2.199219 -7.679688 -2.199219 -6.660156 C -2.199219 -5.253906 -2.996094 -4.15625 -4.460938 -3.871094 L -4.460938 -12.445312 C -8.371094 -12.628906 -10.980469 -10.308594 -10.980469 -6.640625 C -10.980469 -3.175781 -8.675781 -0.792969 -5.355469 -0.792969 C -2.015625 -0.792969 0.285156 -3.15625 0.285156 -6.601562 Z M -6.417969 -3.890625 C -7.71875 -4.238281 -8.515625 -5.296875 -8.515625 -6.660156 C -8.515625 -8.085938 -7.71875 -9.105469 -6.417969 -9.453125 Z M -6.417969 -3.890625 "/></g></g></g><g fill="#ffffff" fill-opacity="1"><g transform="translate(48.487345, 115.833716)"><g><path d="M 0.285156 -6.679688 C 0.285156 -10.0625 -1.324219 -12.140625 -4.011719 -12.140625 C -6.273438 -12.140625 -7.617188 -10.652344 -8.453125 -7.109375 C -8.960938 -4.929688 -9.511719 -4.175781 -10.390625 -4.175781 C -11.324219 -4.175781 -11.894531 -5.011719 -11.894531 -6.375 C -11.894531 -7.863281 -11.121094 -8.757812 -9.839844 -8.757812 L -9.839844 -11.875 C -12.710938 -11.875 -14.542969 -9.714844 -14.542969 -6.335938 C -14.542969 -3.054688 -12.933594 -1.019531 -10.328125 -1.019531 C -8.003906 -1.019531 -6.621094 -2.585938 -5.90625 -5.925781 C -5.480469 -7.945312 -4.890625 -8.859375 -3.890625 -8.859375 C -2.933594 -8.859375 -2.382812 -8.003906 -2.382812 -6.660156 C -2.382812 -5.09375 -3.175781 -4.074219 -4.542969 -4.074219 L -4.542969 -0.894531 C -1.589844 -0.894531 0.285156 -3.097656 0.285156 -6.679688 Z M 0.285156 -6.679688 "/></g></g></g><g fill="#ffffff" fill-opacity="1"><g transform="translate(48.487345, 102.778297)"><g><path d="M 4.074219 -1.589844 L 4.074219 -3.035156 C 4.074219 -5.519531 3.464844 -6.558594 1.261719 -7.433594 L -10.695312 -12.203125 L -10.695312 -8.882812 L -6.804688 -7.457031 L -4.074219 -6.476562 L -10.695312 -3.605469 L -10.695312 -0.183594 L -0.347656 -4.992188 L 0.0195312 -4.867188 C 1.078125 -4.5 1.40625 -4.074219 1.40625 -2.8125 L 1.40625 -1.589844 Z M 4.074219 -1.589844 "/></g></g></g><g fill="#ffffff" fill-opacity="1"><g transform="translate(48.487345, 90.415371)"><g><path d="M 0.285156 -5.664062 C 0.285156 -8.554688 -0.976562 -10.308594 -3.015625 -10.308594 C -4.765625 -10.308594 -5.886719 -9.003906 -6.417969 -6.355469 C -6.785156 -4.523438 -7.089844 -3.953125 -7.742188 -3.953125 C -8.371094 -3.953125 -8.738281 -4.523438 -8.738281 -5.4375 C -8.738281 -6.476562 -8.269531 -7.109375 -7.457031 -7.171875 L -7.457031 -10.125 C -9.714844 -9.980469 -10.980469 -8.3125 -10.980469 -5.460938 C -10.980469 -2.585938 -9.816406 -0.957031 -7.742188 -0.957031 C -5.96875 -0.957031 -4.910156 -2.179688 -4.421875 -4.910156 C -4.136719 -6.558594 -3.707031 -7.25 -3.035156 -7.25 C -2.402344 -7.25 -2.015625 -6.679688 -2.015625 -5.703125 C -2.015625 -4.5625 -2.566406 -3.871094 -3.441406 -3.851562 L -3.441406 -0.816406 C -1.203125 -0.816406 0.285156 -2.730469 0.285156 -5.664062 Z M 0.285156 -5.664062 "/></g></g></g><g fill="#ffffff" fill-opacity="1"><g transform="translate(48.487345, 79.27448)"><g><path d="M 0 -6.703125 L 0 -8.65625 L -2.6875 -8.65625 L -2.6875 -7.375 C -2.6875 -6.152344 -3.28125 -5.582031 -4.523438 -5.582031 L -8.167969 -5.582031 L -8.167969 -8.515625 L -10.695312 -8.515625 L -10.695312 -5.582031 L -13.464844 -5.582031 L -13.464844 -3.175781 L -12.078125 -2.996094 C -10.980469 -2.832031 -10.695312 -2.527344 -10.695312 -1.363281 L -10.695312 -0.40625 L -8.167969 -0.40625 L -8.167969 -2.484375 L -4.054688 -2.484375 C -1.445312 -2.484375 0 -3.992188 0 -6.703125 Z M 0 -6.703125 "/></g></g></g><g fill="#ffffff" fill-opacity="1"><g transform="translate(48.487345, 69.762964)"><g><path d="M 0.285156 -6.601562 C 0.285156 -9.226562 -1.058594 -11.304688 -3.320312 -12.242188 L -3.320312 -9.105469 C -2.605469 -8.597656 -2.199219 -7.679688 -2.199219 -6.660156 C -2.199219 -5.253906 -2.996094 -4.15625 -4.460938 -3.871094 L -4.460938 -12.445312 C -8.371094 -12.628906 -10.980469 -10.308594 -10.980469 -6.640625 C -10.980469 -3.175781 -8.675781 -0.792969 -5.355469 -0.792969 C -2.015625 -0.792969 0.285156 -3.15625 0.285156 -6.601562 Z M -6.417969 -3.890625 C -7.71875 -4.238281 -8.515625 -5.296875 -8.515625 -6.660156 C -8.515625 -8.085938 -7.71875 -9.105469 -6.417969 -9.453125 Z M -6.417969 -3.890625 "/></g></g></g><g fill="#ffffff" fill-opacity="1"><g transform="translate(48.487345, 56.544615)"><g><path d="M 0 -1.546875 L 0 -4.644531 L -5.785156 -4.644531 C -7.332031 -4.644531 -8.332031 -5.5 -8.332031 -6.824219 C -8.332031 -8.105469 -7.375 -8.902344 -5.867188 -8.902344 L 0 -8.902344 L 0 -11.957031 L -5.785156 -11.957031 C -7.332031 -11.957031 -8.332031 -12.8125 -8.332031 -14.136719 C -8.332031 -15.421875 -7.375 -16.214844 -5.867188 -16.214844 L 0 -16.214844 L 0 -19.3125 L -6.234375 -19.3125 C -9.167969 -19.3125 -10.980469 -17.558594 -10.980469 -14.828125 C -10.980469 -13.199219 -10.347656 -11.855469 -9.226562 -10.980469 C -10.367188 -10.226562 -10.980469 -8.984375 -10.980469 -7.457031 C -10.980469 -6.089844 -10.511719 -4.929688 -9.59375 -4.15625 L -10.695312 -3.851562 L -10.695312 -1.546875 Z M 0 -1.546875 "/></g></g></g></svg>