<svg width="866" height="133" viewBox="0 0 866 133" fill="none" xmlns="http://www.w3.org/2000/svg">
<path d="M590.082 43.3491C590.082 46.8496 588.691 50.2066 586.216 52.6818C583.741 55.157 580.384 56.5476 576.883 56.5476C569.524 56.5476 563.685 56.1062 558.533 52.0583C567.708 48.0349 569.597 30.1506 576.883 30.1506C580.384 30.1506 583.741 31.5412 586.216 34.0164C588.691 36.4916 590.082 39.8486 590.082 43.3491Z" fill="url(#paint0_linear_901_41)"/>
<path fill-rule="evenodd" clip-rule="evenodd" d="M472.988 15.063C459.711 6.60011 444.254 2.19262 428.51 2.37986H427.333C411.125 2.37986 398.433 6.46862 389.258 14.6461C380.083 22.8237 375.503 34.3782 375.52 49.3104V127.815H403.266V57.2592C403.266 37.1916 412.745 27.1495 431.7 27.1331C433.925 27.127 436.147 27.2826 438.349 27.5991C446.032 29.1426 453.325 32.2218 459.789 36.6518L460.526 34.8855C463.676 27.6977 467.875 21.0173 472.988 15.063Z" fill="white"/>
<path fill-rule="evenodd" clip-rule="evenodd" d="M512.436 71.5616C515.899 72.8382 519.44 73.8953 523.035 74.7264C533.268 76.8798 543.783 77.3519 554.167 76.1246C571.119 73.2788 583.802 63.4902 587.727 55.7624C590.115 51.1797 590.975 45.9531 590.18 40.8467L562.728 47.2006C560.937 53.6036 550.463 54.5604 537.657 53.3337C534.348 53.0387 531.067 52.4893 527.844 51.6902C524.657 50.8274 521.534 49.7452 518.496 48.4518C516.553 50.7402 515.018 53.346 513.958 56.155C512.702 59.606 512.07 63.2528 512.093 66.9249C512.078 68.4773 512.193 70.0283 512.436 71.5616Z" fill="url(#paint1_linear_901_41)"/>
<path d="M865.043 127.349C863.449 127.643 860.849 128.011 857.365 128.428C853.881 128.845 849.809 129.262 845.099 129.655C840.388 130.047 835.113 130.44 829.275 130.759C823.436 131.078 817.377 131.225 811.023 131.225C800.588 131.469 790.166 130.364 780.014 127.937C773.179 126.304 766.735 123.336 761.051 119.204C756.743 115.982 753.455 111.587 751.58 106.545C749.928 101.815 749.098 96.8361 749.127 91.8255C749.003 85.8555 750.027 79.9172 752.144 74.3338C754.21 69.2558 757.673 64.8667 762.13 61.6749C767.584 57.9021 773.754 55.2886 780.259 53.9962C789.218 52.1835 798.351 51.3609 807.49 51.5429C813.623 51.5429 819.462 51.7392 824.982 52.1808C830.501 52.6224 834.624 52.966 837.371 53.2849C837.538 48.4327 836.59 43.6069 834.599 39.1787C832.885 35.6082 830.229 32.5718 826.92 30.3958C823.354 28.1775 819.386 26.6851 815.243 26.0044C810.258 25.1625 805.21 24.7603 800.155 24.8023C792.61 24.5463 785.078 25.6176 777.904 27.9671C773.984 29.2164 770.266 31.0261 766.864 33.3399C765.377 31.936 764.031 30.3914 762.841 28.7278C761.14 26.3153 760.278 23.4105 760.388 20.4603C760.414 18.1129 761.029 15.8094 762.179 13.7627C763.737 11.2387 765.983 9.21279 768.655 7.9239C772.51 5.94871 776.648 4.58344 780.921 3.87627C787.406 2.80565 793.975 2.32101 800.547 2.42863C809.335 2.35683 818.102 3.29526 826.675 5.22538C833.956 6.82312 840.849 9.84094 846.963 14.1062C852.688 18.2328 857.252 23.7678 860.211 30.1751C863.551 37.7567 865.167 45.9844 864.945 54.266V127.349H865.043ZM837.592 73.377C835.972 73.0826 832.931 72.5675 828.466 71.9296C821.807 71.152 815.102 70.8241 808.398 70.9482C797.407 70.9482 789.337 72.6165 784.357 75.8548C779.377 79.0931 776.824 84.3921 776.824 91.5311C776.785 94.2851 777.32 97.0172 778.395 99.5533C779.564 102.119 781.478 104.273 783.889 105.735C787.135 107.693 790.723 109.017 794.463 109.636C799.953 110.604 805.523 111.048 811.097 110.961C817.03 111.049 822.961 110.763 828.858 110.102C833.249 109.538 836.218 109.072 837.617 108.753V73.377H837.592Z" fill="white"/>
<path d="M607.745 54.3888C607.601 46.8993 609.135 39.4725 612.235 32.653C615.149 26.3846 619.393 20.826 624.673 16.3633C630.178 11.7554 636.539 8.27892 643.391 6.13312C651.053 3.7079 659.053 2.51562 667.089 2.60057C675.158 2.525 683.188 3.71695 690.887 6.13312C697.78 8.26713 704.183 11.744 709.727 16.3633C714.976 20.8134 719.167 26.3785 721.993 32.653C725.017 39.4936 726.516 46.9107 726.384 54.3888V127.987H698.687V61.356C698.687 50.3654 695.988 41.9262 690.665 36.2101C685.341 30.494 677.467 27.55 667.089 27.55C656.712 27.55 648.641 30.4695 643.391 36.2101C638.141 41.9507 635.467 50.3654 635.467 61.356V127.987H607.745V54.3888Z" fill="white"/>
<path d="M2.45337 49.5805C2.28661 42.5519 3.70347 35.5757 6.59923 29.1692C9.234 23.4799 13.1066 18.4509 17.9336 14.4497C22.9414 10.4451 28.6708 7.43867 34.8117 5.59343C41.6641 3.50585 48.7961 2.47997 55.9591 2.55141C65.2588 2.38088 74.4791 4.29205 82.9449 8.14491C90.7167 11.7306 97.2978 17.4688 101.909 24.6798C106.457 17.5078 112.948 11.774 120.627 8.14491C128.931 4.30366 137.998 2.39136 147.146 2.55141C154.227 2.50435 161.275 3.48763 168.072 5.47064C174.186 7.24134 179.884 10.2195 184.828 14.2289C189.583 18.2007 193.411 23.1663 196.04 28.7766C198.903 35.1937 200.318 42.1624 200.186 49.1879V128.011H172.44V58.7065C172.44 47.5197 169.937 39.5302 164.933 34.7381C159.344 29.745 152.005 27.1692 144.522 27.5745C140.696 27.4728 136.889 28.1296 133.318 29.5064C129.748 30.8832 126.485 32.953 123.718 35.5967C118.125 40.9612 115.336 49.6293 115.352 61.6012V128.011H87.6059V61.6012C87.6059 49.6293 84.8339 40.9694 79.2159 35.5967C76.4582 32.9545 73.2036 30.8852 69.6413 29.5082C66.0789 28.1312 62.2794 27.4739 58.4614 27.5745C50.956 27.2574 43.6255 29.9003 38.0496 34.9343C32.8487 39.8408 30.2566 47.8713 30.2729 59.0255V128.085H2.52644V49.5805H2.45337Z" fill="white"/>
<path d="M228.349 18.8902C228.177 17.0626 228.44 15.22 229.118 13.5141C229.796 11.8082 230.87 10.2877 232.25 9.07714C235.449 6.85535 239.303 5.77516 243.191 6.01057C245.904 5.99728 248.605 6.36885 251.213 7.11442C253.666 7.85039 255.286 8.36561 256.12 8.68454V72.6408C256.12 83.6478 258.721 92.0462 263.922 97.8358C269.122 103.626 277.063 106.496 287.743 106.447C298.439 106.447 306.37 103.576 311.538 97.8358C316.764 92.0707 319.34 83.6805 319.34 72.6408V18.8902C319.169 17.0649 319.431 15.2249 320.104 13.5198C320.778 11.8147 321.844 10.2926 323.217 9.07714C326.337 6.88409 330.104 5.80402 333.912 6.01057C336.707 5.98432 339.491 6.35592 342.18 7.11442C344.633 7.85039 346.204 8.36561 347.087 8.68454V78.7006C347.227 86.3338 345.773 93.9122 342.817 100.952C340.095 107.359 335.941 113.057 330.675 117.609C325.16 122.295 318.749 125.809 311.833 127.937C304.037 130.369 295.908 131.562 287.743 131.47C279.593 131.558 271.48 130.366 263.7 127.937C256.811 125.831 250.437 122.313 244.982 117.609C239.718 113.026 235.529 107.339 232.716 100.952C229.712 93.9231 228.216 86.3431 228.324 78.7006V18.8902H228.349Z" fill="white"/>
<path d="M498.428 78.5778C497.218 74.2059 496.786 69.6555 497.152 65.134L472.08 47.495C470.194 53.8695 469.195 60.4737 469.112 67.121C468.984 78.1262 471.683 88.9801 476.949 98.6444C482.215 108.309 489.872 116.46 499.188 122.319L516.68 104.092C512.068 101.297 508.073 97.5939 504.936 93.2082C501.798 88.8224 499.584 83.845 498.428 78.5778Z" fill="url(#paint2_linear_901_41)"/>
<path d="M570.726 98.7436C567.525 101.097 564.107 103.142 560.52 104.852C551.042 109.343 540.394 110.75 530.075 108.876C525.33 108.11 520.776 106.444 516.656 103.969L502.427 108.876L499.14 122.295C509.123 128.557 520.671 131.874 532.455 131.863C563.734 131.863 579.901 113.341 579.901 113.341L578.552 104.043L570.726 98.7436Z" fill="url(#paint3_linear_901_41)"/>
<path d="M595.406 86.3303C597.442 78.4799 592.34 75.7811 588.66 80.9575C581.671 90.4245 572.716 98.2664 562.409 103.945L570.726 120.651C585.838 111.452 592.904 95.9961 595.406 86.3303Z" fill="url(#paint4_linear_901_41)"/>
<path d="M533.804 27.1577C553.43 27.1577 564.397 40.8221 562.557 47.2006L589.983 40.8958C589.098 35.5444 586.917 30.4909 583.63 26.1763C573.621 12.2909 555.075 2.79668 530.959 2.79668C522.306 3.04072 513.789 5.01347 505.91 8.59891C498.032 12.1843 490.95 17.31 485.083 23.6739C479.012 30.5033 474.574 38.6241 472.105 47.4216C481.305 58.4858 497.153 65.0604 497.153 65.0604C497.465 56.2627 500.442 47.7675 505.69 40.6997C508.936 36.3421 513.189 32.8345 518.084 30.4764C522.98 28.1183 528.373 26.9797 533.804 27.1577Z" fill="url(#paint5_linear_901_41)"/>
<path d="M508.511 37.4121C511.793 34.0532 515.735 31.4088 520.087 29.6442C524.44 27.8796 529.109 27.0331 533.804 27.1577C553.43 27.1577 564.397 40.8221 562.557 47.2006C562.089 48.549 561.276 49.752 560.201 50.69C559.125 51.6281 557.823 52.2688 556.424 52.5488C559.987 51.4973 563.294 49.7211 566.14 47.3318C568.985 44.9424 571.306 41.9914 572.958 38.6633C578.502 26.0781 569.965 10.9906 548.425 4.6612C542.7 3.44288 536.862 2.84253 531.008 2.87037C515.498 3.2785 500.651 9.25183 489.179 19.6997L508.511 37.4121Z" fill="url(#paint6_linear_901_41)"/>
<defs>
<linearGradient id="paint0_linear_901_41" x1="596.018" y1="49.7766" x2="558.533" y2="38.8599" gradientUnits="userSpaceOnUse">
<stop stop-color="#FF6E00"/>
<stop offset="1" stop-color="#F8432E"/>
</linearGradient>
<linearGradient id="paint1_linear_901_41" x1="619.791" y1="-28.507" x2="497.177" y2="120.406" gradientUnits="userSpaceOnUse">
<stop stop-color="#FFDA00"/>
<stop offset="0.83" stop-color="#FF9B00"/>
<stop offset="1" stop-color="#FF5D69"/>
</linearGradient>
<linearGradient id="paint2_linear_901_41" x1="596.188" y1="-47.9368" x2="473.574" y2="100.998" gradientUnits="userSpaceOnUse">
<stop stop-color="#FFDA00"/>
<stop offset="0.83" stop-color="#FF9B00"/>
<stop offset="1" stop-color="#FF5D69"/>
</linearGradient>
<linearGradient id="paint3_linear_901_41" x1="641.428" y1="-10.6963" x2="518.839" y2="138.241" gradientUnits="userSpaceOnUse">
<stop stop-color="#FFDA00"/>
<stop offset="0.83" stop-color="#FF9B00"/>
<stop offset="1" stop-color="#FF5D69"/>
</linearGradient>
<linearGradient id="paint4_linear_901_41" x1="658.26" y1="3.16457" x2="535.646" y2="152.079" gradientUnits="userSpaceOnUse">
<stop stop-color="#FFDA00"/>
<stop offset="0.83" stop-color="#FF9B00"/>
<stop offset="1" stop-color="#FF5D69"/>
</linearGradient>
<linearGradient id="paint5_linear_901_41" x1="600.581" y1="-44.3304" x2="477.967" y2="104.606" gradientUnits="userSpaceOnUse">
<stop stop-color="#FFDA00"/>
<stop offset="0.83" stop-color="#FF9B00"/>
<stop offset="1" stop-color="#FF5D69"/>
</linearGradient>
<linearGradient id="paint6_linear_901_41" x1="501.936" y1="14.4988" x2="571.903" y2="34.0512" gradientUnits="userSpaceOnUse">
<stop stop-color="#FFDA00" stop-opacity="0"/>
<stop offset="0.83" stop-color="#FF9B00"/>
<stop offset="1" stop-color="#FF5D69"/>
</linearGradient>
</defs>
</svg>
